<?xml version="1.0" encoding="UTF-8"?>
<svg version="1.1" xmlns="http://www.w3.org/2000/svg" width="512" height="512">
<path d="M0 0 C1.74616226 -0.00935994 1.74616226 -0.00935994 3.52760053 -0.01890898 C6.76012957 -0.0321191 9.99205958 -0.02734343 13.22457385 -0.0149641 C16.71090076 -0.00592605 20.19714571 -0.01987792 23.68345642 -0.03088379 C30.51701094 -0.04869372 37.35038994 -0.04481614 44.18395141 -0.03323323 C49.74389781 -0.02420001 55.30379501 -0.02297445 60.86374664 -0.02732849 C61.65511379 -0.02794142 62.44648094 -0.02855436 63.26182891 -0.02918586 C64.86963009 -0.0304648 66.47743126 -0.03176165 68.08523241 -0.03307623 C83.1751441 -0.04449155 98.26495873 -0.03135805 113.35485449 -0.00987476 C126.27798002 0.00795561 139.20096162 0.0049276 152.12408447 -0.0135498 C167.14135552 -0.03501148 182.1585411 -0.04334915 197.17582536 -0.03110075 C198.78138366 -0.02982664 200.38694198 -0.02856915 201.99250031 -0.02732849 C202.78236861 -0.02671139 203.57223691 -0.02609429 204.38604061 -0.02545848 C209.92750419 -0.02201832 215.46891322 -0.0278059 221.01036835 -0.0372467 C227.78157389 -0.04852889 234.55259425 -0.045299 241.3237789 -0.02412373 C244.77289616 -0.01368968 248.22170602 -0.00935799 251.67082024 -0.02272034 C268.92819239 -0.0734209 284.72366155 0.35303572 300.48101807 8.19543457 C301.18436279 8.53792236 301.88770752 8.88041016 302.61236572 9.23327637 C322.07486047 19.03994257 335.76808798 34.98886605 344.60601807 54.57043457 C344.88026611 55.17009033 345.15451416 55.76974609 345.43707275 56.38757324 C349.96284601 66.99784105 351.26994691 77.87403092 351.16851807 89.32043457 C351.15949463 90.5480249 351.15047119 91.77561523 351.14117432 93.04040527 C350.66122375 118.25614147 339.79676946 139.47180996 321.73101807 156.91027832 C304.35631984 171.95477614 283.30404017 178.99476327 260.44537354 178.9119873 C259.08035226 178.91770886 257.71533575 178.9246799 256.35032654 178.93278503 C252.69184196 178.95051522 249.03359974 178.94958916 245.37508535 178.94384265 C242.31033298 178.94072749 239.24562563 178.94686743 236.18087971 178.9528814 C228.95634246 178.96685269 221.73192372 178.96542173 214.50738525 178.95397949 C207.06234169 178.94244856 199.61765627 178.95667356 192.17265975 178.98337597 C185.75960349 179.00551284 179.34665988 179.0121766 172.93356812 179.00629956 C169.11171038 179.00293079 165.29008333 179.00534214 161.4682579 179.02255058 C157.88436712 179.03799047 154.30101153 179.03409805 150.71714211 179.01524544 C148.77618711 179.00979374 146.83520819 179.02408768 144.89430237 179.03894043 C143.16205162 179.02418922 143.16205162 179.02418922 141.39480591 179.00914001 C139.89006116 179.00882609 139.89006116 179.00882609 138.35491753 179.00850582 C134.98376034 178.36537738 133.7981808 177.20385169 131.73101807 174.50793457 C131.18185001 170.66375816 130.99892499 168.51759849 133.31506348 165.32330322 C136.60599582 162.85046891 138.79080858 162.99028084 142.8862915 162.96203613 C143.59888626 162.95169846 144.31148102 162.94136078 145.04566956 162.93070984 C147.39414136 162.90128108 149.74175137 162.89978274 152.09039307 162.89855957 C153.72137089 162.88357786 155.35233354 162.86685073 156.98327637 162.84844971 C161.27075904 162.80476243 165.55803706 162.7847742 169.84570312 162.76971436 C174.22296253 162.75014813 178.60000075 162.70817762 182.97711182 162.66809082 C191.56168938 162.59277384 200.14618013 162.54249157 208.73101807 162.50793457 C207.91407471 161.76390381 207.09713135 161.01987305 206.25543213 160.2532959 C205.16911309 159.26141388 204.08285321 158.26946709 202.99664307 157.27746582 C202.45990967 156.78895142 201.92317627 156.30043701 201.37017822 155.79711914 C185.50778927 141.29695825 173.93353272 121.43004347 172.54644775 99.6036377 C171.1876493 67.52035344 171.1876493 67.52035344 178.61773682 58.12121582 C182.13032806 55.43969977 184.40420918 56.02717803 188.73101807 56.50793457 C190.66851807 57.63293457 190.66851807 57.63293457 191.73101807 59.50793457 C192.71668706 63.73223026 192.71793887 66.31858722 191.29351807 70.38293457 C186.11256864 89.57163616 189.7389521 108.99647165 198.82086182 126.25402832 C208.2259069 142.27530144 223.57012307 154.44139138 241.41851807 159.75793457 C262.72038406 164.58099857 282.89646261 162.24343221 301.78961182 150.57043457 C315.12519491 141.21958746 325.04895822 128.88292003 330.73101807 113.50793457 C331.0494165 112.68035645 331.36781494 111.85277832 331.69586182 111.00012207 C337.38827058 93.00476534 334.47444743 72.91837175 326.48101807 56.25793457 C317.48212844 39.15813369 303.02458345 26.90551936 284.98101807 20.13293457 C265.35980959 14.28831928 245.93807626 16.03485818 227.54351807 25.07434082 C221.23486725 28.54248942 215.99324146 32.62558352 210.78961182 37.58996582 C206.9537098 41.16383278 204.64426289 41.91130643 199.60211182 41.75402832 C197.73101807 41.50793457 197.73101807 41.50793457 195.79351807 40.38293457 C194.2625198 37.68117293 193.85524386 35.61357952 193.73101807 32.50793457 C196.33592634 25.9088336 203.14515837 20.63379574 208.73101807 16.50793457 C207.03581717 16.50573473 207.03581717 16.50573473 205.30636978 16.50349045 C177.8324895 16.46692719 150.35873141 16.40751938 122.88495255 16.32403183 C109.59893091 16.28418936 96.31299053 16.25182336 83.0269165 16.23693848 C71.44941679 16.22394894 59.87204811 16.19705342 48.29462218 16.1533215 C42.16205645 16.13064598 36.0296527 16.11502754 29.89704132 16.11605072 C24.12846577 16.11679373 18.3602491 16.09898754 12.59176636 16.06676674 C10.47133774 16.05822666 8.35086906 16.05654546 6.2304306 16.06213188 C3.34122543 16.06873153 0.45317566 16.05094822 -2.43591309 16.0269165 C-3.70244897 16.03855713 -3.70244897 16.03855713 -4.99457145 16.05043292 C-8.60564361 15.99704603 -10.81770643 15.8326199 -13.78979874 13.6942482 C-15.96496952 10.47922687 -15.81019911 8.29645481 -15.26898193 4.50793457 C-11.82411298 -1.16975264 -5.90304145 -0.04814039 0 0 Z " fill="#000000" transform="translate(161.26898193359375,166.4920654296875)"/>
<path d="M0 0 C0.97169128 -0.0098568 0.97169128 -0.0098568 1.9630127 -0.01991272 C4.09179826 -0.03951384 6.22051401 -0.05127368 8.34936523 -0.0612793 C9.07896894 -0.06535482 9.80857265 -0.06943035 10.56028557 -0.07362938 C14.41632676 -0.09442589 18.27233296 -0.10875965 22.12841797 -0.11816406 C26.10881157 -0.12926314 30.08865148 -0.1637206 34.06884861 -0.20333576 C37.13405911 -0.22946074 40.19913612 -0.23785178 43.26444817 -0.24144554 C44.73208325 -0.24631599 46.19971219 -0.25794316 47.66723824 -0.27648354 C49.71871482 -0.30080733 51.76873618 -0.2999246 53.8203125 -0.29296875 C54.98659683 -0.29883499 56.15288116 -0.30470123 57.35450745 -0.31074524 C60.98391985 0.28111848 62.15623322 1.27199218 64.34545898 4.17700195 C64.94894444 7.72247902 64.62625303 9.59063316 63.07568359 12.82861328 C58.63929793 16.64454762 53.82281311 15.86338093 48.16186523 15.8137207 C46.95537827 15.82409866 45.7488913 15.83447662 44.50584412 15.84516907 C40.63959536 15.87490452 36.77430149 15.87147787 32.90795898 15.86450195 C29.07402032 15.87343775 25.24033778 15.88960816 21.40647888 15.91596985 C19.02229548 15.93070112 16.63801282 15.93479937 14.25379944 15.92619324 C-3.07906717 15.98460083 -18.46129033 19.28277903 -31.65454102 31.17700195 C-46.07257725 47.16970426 -47.0094163 65.98156555 -46.9152832 86.40844727 C-46.90455783 89.17266772 -46.91524026 91.93623853 -46.92797852 94.70043945 C-46.94481835 114.23606408 -45.36583367 131.96823024 -31.65454102 147.17700195 C-15.37358259 161.85491217 3.65210744 162.48037435 24.39257812 162.43237305 C26.38798159 162.43512788 28.38338396 162.43881076 30.37878418 162.44334412 C34.65002491 162.45140999 38.92121343 162.4536364 43.19246101 162.45139694 C49.94503642 162.44855019 56.69750839 162.46296329 63.45005798 162.4803772 C82.64230839 162.52728462 101.83455021 162.55136541 121.02685547 162.55786133 C131.64600326 162.56160708 142.26503251 162.57958794 152.88412946 162.61295569 C159.59935694 162.63319455 166.31427931 162.63552915 173.02952492 162.62467551 C177.19687487 162.62207497 181.36404557 162.63603832 185.53134918 162.65475655 C187.46635473 162.66009333 189.40139299 162.65855651 191.33638573 162.64972115 C193.97310696 162.63864967 196.6086084 162.65197224 199.24525452 162.67147827 C200.0145981 162.66235361 200.78394168 162.65322896 201.5765987 162.6438278 C205.05649599 162.69409724 206.9957437 162.91588235 209.82047176 165.02500343 C211.91800236 167.98495134 211.92628949 169.61941511 211.34545898 173.17700195 C209.84699249 175.82956696 209.84699249 175.82956696 207.34545898 178.17700195 C204.31693098 178.67391139 201.84940096 178.84510169 198.82092285 178.79846191 C197.95209174 178.80485074 197.08326062 178.81123956 196.18810129 178.81782198 C193.27068707 178.83310738 190.35462324 178.81258672 187.43725586 178.79223633 C185.34778391 178.79573666 183.25831461 178.80139424 181.16885376 178.80905151 C175.48647181 178.82332869 169.80457215 178.80620462 164.12223625 178.78276634 C158.17276045 178.76267675 152.22330508 178.76853629 146.27380371 178.77087402 C136.27319381 178.7708204 126.27277248 178.75103923 116.2722168 178.71899414 C104.72751781 178.68217968 93.18306665 178.67330705 81.63831663 178.68029165 C70.52390428 178.68661136 59.40957654 178.67581001 48.29518127 178.65632629 C43.57140391 178.64817361 38.84766992 178.64543887 34.12388611 178.64701843 C28.54898801 178.64790146 22.97432308 178.63356893 17.39948654 178.6077919 C15.35981248 178.60066567 13.32011355 178.59852926 11.28042984 178.60190964 C-11.64000857 178.63263284 -28.7384426 173.65352969 -45.64282227 157.24731445 C-56.10008353 146.07126139 -62.722585 131.08130208 -62.81567383 115.74121094 C-62.82528137 114.45895126 -62.83488892 113.17669159 -62.8447876 111.85557556 C-62.84963841 110.46141744 -62.85391654 109.06725722 -62.85766602 107.6730957 C-62.86049339 106.96450975 -62.86332077 106.25592381 -62.86623383 105.52586555 C-62.88119891 101.77082068 -62.89044339 98.01581391 -62.89477539 94.26074219 C-62.90023461 90.41350873 -62.92421578 86.56663373 -62.95274734 82.71951199 C-62.97153407 79.7346145 -62.97658791 76.74980028 -62.97811127 73.76484871 C-62.98110586 72.34850177 -62.98902392 70.93215515 -63.00229645 69.51586723 C-63.17989145 49.09604139 -56.86107207 32.7264131 -42.56860352 18.0324707 C-30.97763344 7.09009281 -16.02523495 0.13517133 0 0 Z " fill="#000000" transform="translate(62.654541015625,166.822998046875)"/>
<path d="M0 0 C6.74357062 4.2443087 11.79512023 10.76036068 14.3125 18.3125 C14.39223476 19.64775717 14.42021338 20.98662083 14.41015625 22.32421875 C14.40532227 23.46020508 14.40532227 23.46020508 14.40039062 24.61914062 C14.38782227 25.79766602 14.38782227 25.79766602 14.375 27 C14.37048828 27.79728516 14.36597656 28.59457031 14.36132812 29.41601562 C14.3495585 31.38154257 14.33162348 33.34703085 14.3125 35.3125 C15.45332031 35.49425781 15.45332031 35.49425781 16.6171875 35.6796875 C20.30795427 36.54621535 22.93910264 38.42032726 25.3125 41.3125 C27.86570634 46.42130333 28.69584739 50.16552351 28.7109375 55.96875 C28.71380768 56.67471313 28.71667786 57.38067627 28.71963501 58.10803223 C28.72166304 59.59042164 28.71622204 61.0728386 28.70361328 62.55517578 C28.68753975 64.80693154 28.70350329 67.05689292 28.72265625 69.30859375 C28.72067359 70.75781641 28.71682945 72.20703796 28.7109375 73.65625 C28.70755371 74.95755859 28.70416992 76.25886719 28.70068359 77.59960938 C27.99813918 84.319292 25.51582802 88.87063461 20.3125 93.3125 C17.03519466 95.34237745 14.47273079 95.57385901 10.64526367 95.60302734 C9.50695602 95.61578705 8.36864838 95.62854675 7.19584656 95.64169312 C5.35673454 95.64503159 5.35673454 95.64503159 3.48046875 95.6484375 C1.5828051 95.6584227 1.5828051 95.6584227 -0.35319519 95.66860962 C-3.03060976 95.67873739 -5.70761831 95.68429169 -8.38500977 95.68310547 C-11.80136603 95.6829026 -15.21688738 95.71017408 -18.63304615 95.74464989 C-21.90767586 95.77235671 -25.18230031 95.77107066 -28.45703125 95.7734375 C-30.28703423 95.79499405 -30.28703423 95.79499405 -32.15400696 95.81698608 C-38.88094014 95.78092243 -43.27652667 95.45231364 -48.6875 91.3125 C-54.60075322 83.84312751 -53.93451329 76.48829942 -53.98266602 67.35107422 C-53.99416848 65.83242462 -54.01459315 64.3138149 -54.04418945 62.79541016 C-54.34974855 47.10093883 -54.34974855 47.10093883 -49.6875 40.3125 C-46.42878749 37.05378749 -44.14737466 36.07938997 -39.6875 35.3125 C-39.74550781 34.20132813 -39.80351562 33.09015625 -39.86328125 31.9453125 C-40.2555497 21.21284765 -39.43027089 13.90653746 -32.25 5.4375 C-23.54021491 -1.78524861 -10.86828924 -5.18333795 0 0 Z M-22.6875 19.3125 C-24.12957941 22.19665883 -23.78144887 24.72971528 -23.75 27.9375 C-23.729375 30.04125 -23.70875 32.145 -23.6875 34.3125 C-16.4275 34.3125 -9.1675 34.3125 -1.6875 34.3125 C-0.73204805 25.40376303 -0.73204805 25.40376303 -4.0625 17.5625 C-7.64777026 14.48941121 -9.81049457 13.91835971 -14.58203125 13.953125 C-18.30343453 14.58831814 -20.09062849 16.65229016 -22.6875 19.3125 Z M-37.6875 51.3125 C-37.94130234 55.78581958 -37.87272721 60.2703346 -37.875 64.75 C-37.88724609 66.01650391 -37.89949219 67.28300781 -37.91210938 68.58789062 C-37.91404297 69.79509766 -37.91597656 71.00230469 -37.91796875 72.24609375 C-37.92207764 73.36040771 -37.92618652 74.47472168 -37.93041992 75.62280273 C-37.96337172 78.46371961 -37.96337172 78.46371961 -35.6875 80.3125 C-33.64162325 80.61781902 -33.64162325 80.61781902 -31.26953125 80.57128906 C-30.35518311 80.57759338 -29.44083496 80.58389771 -28.4987793 80.59039307 C-27.50918213 80.5863446 -26.51958496 80.58229614 -25.5 80.578125 C-24.48655518 80.58003845 -23.47311035 80.5819519 -22.42895508 80.58392334 C-20.28368888 80.58528591 -18.13841447 80.58158447 -15.99316406 80.57324219 C-12.70098428 80.56254382 -9.40935022 80.57313519 -6.1171875 80.5859375 C-4.03645712 80.58461592 -1.95572709 80.58205355 0.125 80.578125 C1.11459717 80.58217346 2.10419434 80.58622192 3.1237793 80.59039307 C4.49530151 80.58093658 4.49530151 80.58093658 5.89453125 80.57128906 C6.70124268 80.56969788 7.5079541 80.56810669 8.33911133 80.56646729 C10.54556436 80.4868125 10.54556436 80.4868125 12.3125 78.3125 C12.60770182 75.51239979 12.60770182 75.51239979 12.54296875 72.24609375 C12.54103516 71.03888672 12.53910156 69.83167969 12.53710938 68.58789062 C12.51874023 66.68813477 12.51874023 66.68813477 12.5 64.75 C12.49935547 63.47962891 12.49871094 62.20925781 12.49804688 60.90039062 C13.02563043 55.23164507 13.02563043 55.23164507 11.3125 50.3125 C9.81379952 50.21418854 8.31051461 50.18451544 6.80859375 50.18310547 C5.85090088 50.17995331 4.89320801 50.17680115 3.90649414 50.17355347 C2.86485107 50.1755777 1.82320801 50.17760193 0.75 50.1796875 C-0.31162354 50.17873077 -1.37324707 50.17777405 -2.46704102 50.17678833 C-4.71663472 50.17610636 -6.96623037 50.17796181 -9.21582031 50.18212891 C-12.67257071 50.1874769 -16.12919117 50.18218446 -19.5859375 50.17578125 C-21.76562529 50.17644203 -23.945313 50.17772318 -26.125 50.1796875 C-27.16664307 50.17766327 -28.20828613 50.17563904 -29.28149414 50.17355347 C-30.71803345 50.17828171 -30.71803345 50.17828171 -32.18359375 50.18310547 C-33.03107178 50.18390106 -33.8785498 50.18469666 -34.75170898 50.18551636 C-36.6940713 50.09930292 -36.6940713 50.09930292 -37.6875 51.3125 Z " fill="#000000" transform="translate(437.6875,201.6875)"/>
<path d="M0 0 C6.09147485 1.26905726 9.41605525 7.31740803 12.8125 12.1875 C13.23901855 12.79158691 13.66553711 13.39567383 14.10498047 14.01806641 C18.17823613 19.81514689 22.1067838 25.7057661 26 31.625 C26.00410889 30.82803711 26.00821777 30.03107422 26.01245117 29.20996094 C26.04535345 25.59755377 26.11599656 21.98684061 26.1875 18.375 C26.19330078 17.12074219 26.19910156 15.86648437 26.20507812 14.57421875 C26.23408203 13.36894531 26.26308594 12.16367188 26.29296875 10.921875 C26.31653442 9.25656738 26.31653442 9.25656738 26.34057617 7.55761719 C27 4.625 27 4.625 29.3527832 2.26269531 C32.59298034 0.25815392 34.25434642 -0.01255806 38 0.625 C40.84780619 2.85706431 41.84997666 4.17492999 43 7.625 C43.10736235 9.33146585 43.15870328 11.04172289 43.17700195 12.75146484 C43.19625481 14.31856705 43.19625481 14.31856705 43.21589661 15.91732788 C43.22328354 17.04546906 43.23067047 18.17361023 43.23828125 19.3359375 C43.246353 20.49622467 43.25442474 21.65651184 43.26274109 22.85195923 C43.27657748 25.308192 43.28730162 27.76444397 43.29516602 30.22070312 C43.31240017 33.97823376 43.35629435 37.73488949 43.40039062 41.4921875 C43.41051569 43.87759769 43.41903238 46.26301537 43.42578125 48.6484375 C43.44328934 49.77253021 43.46079742 50.89662292 43.47883606 52.05477905 C43.45713036 59.8527678 43.45713036 59.8527678 41.10546875 63.82543945 C38.06120183 66.42739811 36.18465552 66.53991129 32.2890625 66.2734375 C27.6859632 64.96948787 25.60996262 61.42670174 23 57.625 C22.40155273 56.75657471 22.40155273 56.75657471 21.79101562 55.87060547 C19.19228006 52.0802972 16.65701934 48.25200168 14.15478516 44.39746094 C12.45757687 41.79244356 10.72920245 39.20886573 9 36.625 C8.99383667 37.72171021 8.99383667 37.72171021 8.98754883 38.84057617 C8.95457791 42.16536307 8.88392853 45.48832616 8.8125 48.8125 C8.80669922 49.96298828 8.80089844 51.11347656 8.79492188 52.29882812 C8.5462274 61.8321165 8.5462274 61.8321165 5.63671875 64.88671875 C3 66.625 3 66.625 0 67.25 C-3.0887994 66.60650013 -4.77908966 65.79054859 -6.94793701 63.49023438 C-9.37050481 59.19519046 -8.70502767 53.85244887 -8.6640625 49.0625 C-8.66884613 47.83845459 -8.67362976 46.61440918 -8.67855835 45.35327148 C-8.68195778 42.7677278 -8.67275263 40.18214116 -8.65185547 37.59667969 C-8.62509466 33.63899904 -8.65160625 29.68415492 -8.68359375 25.7265625 C-8.68028966 23.21353541 -8.67388347 20.70051008 -8.6640625 18.1875 C-8.67418365 17.00406006 -8.68430481 15.82062012 -8.69473267 14.60131836 C-8.56451116 5.47433004 -8.56451116 5.47433004 -5.64599609 2.37890625 C-3 0.625 -3 0.625 0 0 Z " fill="#000000" transform="translate(267,222.375)"/>
<path d="M0 0 C7.97637195 6.67756448 12.28932565 15.07076582 13.20703125 25.390625 C13.3762932 35.17704336 10.2097853 43.47382866 3.58203125 50.69140625 C-4.21359123 57.80914852 -12.50435781 60.22547778 -22.9140625 60.0859375 C-31.5957798 59.44018993 -39.56172687 55.2822678 -45.54296875 48.98828125 C-52.96612013 39.65893791 -53.76057323 30.38175427 -52.75 18.875 C-50.90244384 10.49501313 -46.17912268 3.79173932 -39.02734375 -0.91796875 C-26.51369901 -8.0084727 -12.03288229 -8.67252888 0 0 Z M-34.1875 16.4375 C-37.32810018 21.33683628 -37.35989857 26.22270058 -36.75 31.875 C-34.98615206 37.21693947 -31.60587731 40.18877 -26.75 42.875 C-21.64675799 44.57608067 -17.43126566 44.44021247 -12.5625 42.1875 C-8.03283417 39.71198495 -5.39663626 36.81490878 -3.75 31.875 C-3.01872048 25.01775595 -3.54416873 20.40898851 -7.75 14.875 C-16.71859785 7.91976085 -26.30502999 8.15080076 -34.1875 16.4375 Z " fill="#000000" transform="translate(142.75,229.125)"/>
<path d="M0 0 C2.5 1.875 2.5 1.875 3.5 2.875 C4.07971014 9.94746377 4.07971014 9.94746377 1.9375 13.375 C-1.46614804 15.46955264 -3.55150565 15.34346543 -7.5 14.875 C-9.83333333 13.875 -12.16666667 12.875 -14.5 11.875 C-20.39651231 11.1245348 -24.70578185 12.51904729 -29.5 15.875 C-33.20089897 20.0503732 -34.76112315 24.29740945 -34.5 29.875 C-33.61083246 34.20280662 -32.26123552 37.11376448 -29.125 40.25 C-24.14753448 43.33128818 -20.42929773 44.4991366 -14.5 43.875 C-10.59387835 41.81138856 -8.01396635 40.11410579 -6.5 35.875 C-8.3253125 36.0296875 -8.3253125 36.0296875 -10.1875 36.1875 C-13.72393408 36.18121859 -14.43853572 35.91853719 -17.5 33.75 C-19.5 30.875 -19.5 30.875 -20.125 27.875 C-19.25351334 23.69186404 -17.91370897 22.45025414 -14.5 19.875 C-10.98462552 19.13861605 -7.57989435 19.17613698 -4 19.25 C-2.59427734 19.22099609 -2.59427734 19.22099609 -1.16015625 19.19140625 C3.47537623 19.22428237 5.80179362 19.36292373 9.62109375 22.1640625 C12.49667812 26.31303454 12.25277617 28.99987812 11.5 33.875 C9.68735333 42.97200939 6.69539086 49.83973556 -0.5 55.875 C-8.4686518 61.05751086 -16.80377287 61.96114398 -26.125 60.44921875 C-35.69586877 58.01163811 -42.0983107 52.30957514 -47.30859375 44.0859375 C-51.57881327 36.16153013 -52.73207058 26.84205594 -50.3515625 18.09765625 C-46.44531229 7.90198484 -40.16292152 1.39183071 -30.4921875 -3.36328125 C-20.42643134 -7.21195272 -8.95445811 -5.82784209 0 0 Z " fill="#000000" transform="translate(213.5,228.125)"/>
<path d="M0 0 C4.17799007 0.8704146 5.42953731 2.21673308 8 5.625 C8.68554221 9.07674662 8.58271037 12.44970333 8.48828125 15.95703125 C8.48120651 16.94877853 8.47413177 17.94052582 8.46684265 18.96232605 C8.43891433 22.12149342 8.3761772 25.27887082 8.3125 28.4375 C8.28741518 30.58265665 8.26460234 32.72784115 8.24414062 34.87304688 C8.18909327 40.12430584 8.1054831 45.37452503 8 50.625 C8.89203125 50.57859375 9.7840625 50.5321875 10.703125 50.484375 C11.87359375 50.44828125 13.0440625 50.4121875 14.25 50.375 C15.41015625 50.32859375 16.5703125 50.2821875 17.765625 50.234375 C21 50.625 21 50.625 23.38647461 52.515625 C25.12286774 54.785626 25.56800733 55.80524924 25.5625 58.625 C25.58441406 59.285 25.60632813 59.945 25.62890625 60.625 C24.56271719 64.01561365 23.09734323 64.88820754 20 66.625 C16.15706578 67.23561255 12.38425627 67.2287187 8.5 67.1875 C6.95119141 67.22327148 6.95119141 67.22327148 5.37109375 67.25976562 C4.37207031 67.25783203 3.37304688 67.25589844 2.34375 67.25390625 C1.43818359 67.25463135 0.53261719 67.25535645 -0.40039062 67.25610352 C-4.41224121 66.28215218 -5.66311721 65.06106024 -8 61.625 C-8.74584323 57.43888935 -8.70034869 53.30534823 -8.6640625 49.0625 C-8.66884613 47.83845459 -8.67362976 46.61440918 -8.67855835 45.35327148 C-8.68195778 42.7677278 -8.67275263 40.18214116 -8.65185547 37.59667969 C-8.62509466 33.63899904 -8.65160625 29.68415492 -8.68359375 25.7265625 C-8.68028966 23.21353541 -8.67388347 20.70051008 -8.6640625 18.1875 C-8.67418365 17.00406006 -8.68430481 15.82062012 -8.69473267 14.60131836 C-8.56451116 5.47433004 -8.56451116 5.47433004 -5.64599609 2.37890625 C-3 0.625 -3 0.625 0 0 Z " fill="#000000" transform="translate(60,222.375)"/>
<path d="M0 0 C3.0887994 0.64349987 4.77908966 1.45945141 6.94793701 3.75976562 C9.37050481 8.05480954 8.70502767 13.39755113 8.6640625 18.1875 C8.66884613 19.41154541 8.67362976 20.63559082 8.67855835 21.89672852 C8.68195778 24.4822722 8.67275263 27.06785884 8.65185547 29.65332031 C8.62509466 33.61100096 8.65160625 37.56584508 8.68359375 41.5234375 C8.68028966 44.03646459 8.67388347 46.54948992 8.6640625 49.0625 C8.67418365 50.24593994 8.68430481 51.42937988 8.69473267 52.64868164 C8.56451116 61.77566996 8.56451116 61.77566996 5.64599609 64.87109375 C3 66.625 3 66.625 0 67.25 C-3.0887994 66.60650013 -4.77908966 65.79054859 -6.94793701 63.49023438 C-9.37050481 59.19519046 -8.70502767 53.85244887 -8.6640625 49.0625 C-8.66884613 47.83845459 -8.67362976 46.61440918 -8.67855835 45.35327148 C-8.68195778 42.7677278 -8.67275263 40.18214116 -8.65185547 37.59667969 C-8.62509466 33.63899904 -8.65160625 29.68415492 -8.68359375 25.7265625 C-8.68028966 23.21353541 -8.67388347 20.70051008 -8.6640625 18.1875 C-8.67418365 17.00406006 -8.68430481 15.82062012 -8.69473267 14.60131836 C-8.56451116 5.47433004 -8.56451116 5.47433004 -5.64599609 2.37890625 C-3 0.625 -3 0.625 0 0 Z " fill="#000000" transform="translate(242,222.375)"/>
</svg>
