<?xml version="1.0" standalone="no"?>
<!DOCTYPE svg PUBLIC "-//W3C//DTD SVG 20010904//EN"
 "http://www.w3.org/TR/2001/REC-SVG-20010904/DTD/svg10.dtd">
<svg version="1.0" xmlns="http://www.w3.org/2000/svg"
 width="512.000000pt" height="512.000000pt" viewBox="0 0 512.000000 512.000000"
 preserveAspectRatio="xMidYMid meet">

<g transform="translate(0.000000,512.000000) scale(0.100000,-0.100000)"
fill="#000000" stroke="none">
<path d="M2434 5110 c-73 -13 -174 -52 -241 -91 -81 -48 -202 -171 -251 -254
-83 -143 -117 -319 -90 -472 l14 -83 -262 0 c-174 0 -271 -4 -288 -11 -51 -23
-55 -103 -7 -128 13 -7 127 -11 319 -11 l299 0 28 -42 c78 -120 177 -206 302
-264 102 -48 190 -67 308 -66 248 1 461 118 600 330 l28 42 674 0 c459 0 688
-4 718 -11 55 -14 122 -70 146 -123 17 -39 19 -82 19 -731 0 -649 -2 -692 -19
-731 -23 -49 -88 -107 -140 -122 -28 -9 -298 -12 -995 -12 l-956 0 0 108 c0
59 -5 124 -11 146 -13 45 -79 120 -129 146 -89 45 -200 31 -278 -36 -71 -60
-86 -100 -90 -242 l-4 -122 -782 0 c-520 0 -794 4 -819 11 -49 13 -115 73
-138 124 -17 37 -19 84 -19 730 0 771 -3 731 71 802 60 57 95 63 353 63 220 0
233 1 254 20 32 30 30 82 -5 110 -27 21 -34 21 -283 18 l-255 -3 -67 -32 c-81
-38 -146 -102 -185 -181 l-28 -57 0 -740 0 -740 28 -57 c39 -79 104 -143 185
-181 l67 -32 813 -3 812 -3 0 -424 c0 -234 -2 -425 -5 -425 -2 0 -57 46 -123
103 -152 133 -172 146 -244 168 -81 26 -134 24 -227 -7 -100 -33 -136 -67
-136 -127 0 -38 35 -98 336 -587 185 -300 349 -567 365 -595 40 -71 148 -175
221 -213 124 -65 177 -72 547 -72 379 0 421 6 546 70 153 80 268 239 305 422
9 48 15 131 15 216 0 126 -2 142 -21 166 -25 32 -79 36 -108 7 -16 -16 -19
-40 -23 -187 -4 -140 -9 -180 -27 -233 -56 -161 -171 -267 -329 -300 -71 -15
-643 -15 -714 0 -108 23 -213 92 -265 176 -35 56 -636 1032 -665 1080 l-19 31
54 12 c95 22 113 12 347 -191 153 -131 165 -139 215 -139 29 0 45 8 71 34 l34
34 0 664 c0 641 1 664 20 695 33 55 116 61 165 13 20 -20 20 -34 25 -586 l5
-566 24 -19 c32 -26 73 -24 99 4 21 22 22 33 22 185 0 178 9 218 54 248 37 24
104 14 133 -21 22 -25 23 -34 23 -198 0 -118 4 -180 13 -197 15 -30 54 -45 91
-36 46 11 56 54 56 241 l0 167 29 29 c57 56 149 30 171 -49 5 -20 10 -108 10
-194 0 -149 1 -158 22 -178 30 -27 73 -26 103 5 23 22 25 31 25 120 0 53 5
106 11 118 32 63 107 76 161 28 l33 -29 5 -252 c5 -250 5 -252 29 -271 13 -10
29 -19 37 -19 26 0 62 23 73 47 14 31 15 459 0 516 -16 67 -69 131 -133 162
-49 24 -64 27 -123 22 -38 -3 -78 -8 -90 -12 -16 -5 -23 -2 -28 16 -11 35 -86
110 -130 130 -75 34 -185 22 -252 -28 l-33 -24 -32 24 c-61 45 -149 60 -226
38 l-32 -10 0 99 0 100 988 2 987 3 67 32 c81 38 146 102 185 181 l28 57 0
740 0 740 -28 57 c-39 79 -104 143 -185 181 l-67 32 -681 3 -680 3 14 82 c12
64 12 102 4 177 -19 180 -84 315 -211 440 -138 135 -282 198 -471 205 -58 2
-128 0 -156 -5z"/>
<path d="M825 3547 c-58 -28 -88 -58 -110 -109 -33 -81 -5 -187 62 -233 19
-13 80 -40 134 -60 100 -38 149 -71 149 -100 0 -9 -13 -30 -29 -46 -50 -50
-153 -38 -229 26 -41 34 -85 37 -114 7 -75 -75 63 -200 233 -210 46 -3 92 1
115 8 124 39 195 156 164 269 -19 72 -86 129 -205 175 -122 47 -145 61 -145
86 0 65 99 80 193 30 69 -36 91 -37 122 -5 50 49 24 103 -72 150 -84 41 -197
46 -268 12z"/>
<path d="M1381 3544 c-20 -26 -21 -38 -21 -349 0 -311 1 -323 21 -349 26 -33
79 -36 109 -6 19 19 20 33 20 355 0 322 -1 336 -20 355 -30 30 -83 27 -109 -6z"/>
<path d="M1915 3552 c-116 -40 -200 -127 -236 -246 -56 -179 26 -368 195 -451
76 -37 197 -46 274 -21 57 19 132 80 167 136 38 60 61 159 56 242 -1 10 -11
26 -23 38 -19 18 -35 20 -139 20 -138 0 -163 -11 -163 -75 0 -54 29 -75 106
-75 l60 0 -7 -27 c-10 -42 -53 -93 -91 -109 -137 -57 -304 58 -304 211 0 87
64 180 146 211 56 21 136 15 193 -14 52 -27 71 -28 105 -1 38 30 36 79 -4 112
-75 64 -229 86 -335 49z"/>
<path d="M2549 3551 l-24 -19 0 -335 c0 -315 1 -336 19 -356 22 -25 73 -28
102 -7 17 13 19 31 24 218 l5 203 143 -208 c167 -242 190 -260 253 -198 l29
29 0 320 c0 308 -1 320 -21 346 -27 34 -77 36 -107 3 -20 -22 -22 -34 -24
-221 l-3 -198 -139 203 c-77 111 -148 211 -158 221 -23 23 -70 23 -99 -1z"/>
<path d="M3269 3551 l-24 -19 0 -249 c0 -288 5 -313 81 -383 63 -58 115 -80
195 -80 85 0 147 22 204 72 88 78 90 86 90 379 0 239 -1 258 -19 278 -25 27
-79 28 -106 1 -19 -19 -20 -33 -20 -245 0 -252 -6 -280 -62 -315 -57 -35 -149
-22 -189 26 -11 13 -15 71 -19 266 -5 248 -5 250 -29 269 -30 24 -72 24 -102
0z"/>
<path d="M3981 3544 c-20 -26 -21 -38 -21 -349 0 -311 1 -323 21 -349 26 -33
79 -36 109 -6 18 18 20 33 20 129 l0 108 83 5 c93 5 143 26 193 80 114 121 83
303 -65 380 -51 27 -60 28 -186 28 -132 0 -134 0 -154 -26z m288 -150 c40 -33
43 -89 7 -131 -21 -24 -32 -28 -95 -31 l-71 -4 0 96 0 96 64 0 c55 0 69 -4 95
-26z"/>
</g>
</svg>
